<?xml version="1.0" encoding="UTF-8"?><svg id="Capa_2" xmlns="http://www.w3.org/2000/svg" viewBox="0 0 498.012 155.263"><defs><style>.cls-1{fill:#fceef1;}.cls-2{fill:none;stroke:#000;stroke-miterlimit:10;}.cls-3{fill:#fefefe;}.cls-4{fill:#fcfcfc;}.cls-5{fill:#e31e47;}.cls-6{fill:#fdfdfd;}</style></defs><g id="Capa_1-2"><path d="M60.883,1.248c.333,0,.665,0,.998,0-.704,4.114,1.054,11.743-.137,15.265-.812,2.399-5.406,1.609-6.849,3.614-2.251.225-9.174,1.671-9.84,3.61-1.367,3.98,1.443,10.391,1.856,14.275.705,6.628,1.223,13.239,1.996,19.873.729,6.254,1.181,12.644,1.996,18.879.37,2.833,2.026,17.808,2.928,18.448,1.559,1.107,5.938.151,8.054.435-.25-2.225.535-5.272-.163-7.3-.959-2.788-9.45-4.657-1.837-11.583h4.99c2.805,4.061,3.789,3.87.998,7.949.818-6.084-1.485-6.471-6.99-5.961-.614,4.604.952,7.571,5.992,6.955-2.266,3.653-2.407,5.487-2,9.941l10.982-.004c-.107.067.062.65,0,.994-.601,3.347,1.413,9.629,1.004,9.926-.225.163-1.379.122-2.156.114-1.911-.021-2.794-.462-2.831.885l-.01,10.935c-.729.014-.875.343-.998.994-1.874,9.872,1.39,25.254,0,35.771H.005l-.005-154.018c20.278.014,40.605,0,60.883.005Z"/><path class="cls-5" d="M68.872,119.493c-1.88,9.87,1.39,25.25,0,35.77h429.14v-35.77H68.872ZM84.272,148.363c-.78-1.11-.78-18.88,0-19.99.91-1.3,16.23-2.81,14.53,2.53-.9,2.82-9.38.88-9.98,1.51-.14.14-.14,3.82,0,3.96,1.56,1.64,8.97-3.44,8,3.48-.16,1.13-6.52.22-8,.5v4.98h9.98c2.3,6-13.62,4.34-14.53,3.03ZM100.802,148.303v-19.87c21.51-4.1,21.32,23.95,0,19.87ZM134.732,144.823c0,4.5-15.96,6.93-15.96-1.98v-14.41h4.99v15.4c0,2.62,6.98,1.27,6.98-.99v-14.41c0-.2,3.99-.2,3.99,0v16.39ZM154.692,135.383c-6.68,1.32-4.14-1.97-5.58-3.06-7.7-5.85-10.26,12.3-3.67,12.83,4.02.32,3.45-3.02,4.47-3.59,6.03-3.36,5.29,7.8-3.7,7.8-8.23,0-9.51-8.95-8.42-15.41,1.06-6.32,10.31-8.51,14.63-4.25.61.6,2.72,5.28,2.27,5.68ZM168.532,144.463c-.81-.51-6-.35-6.93.31-1.56,1.11.66,5.08-5.9,3.53-.74-.67,5.82-18.13,6.46-18.89.94-1.12,4.66-1.52,5.42-.89.8.67,5.62,17.28,6.07,19.78-5.33,1.66-3.98-3.1-5.12-3.84ZM183.642,132.903v15.4c0,.2-4,.2-4,0v-15.4c0-1.54-4.62-1.72-5.99-1.49l.01-2.98h15.96l.01,2.98c-1.37-.23-5.99-.05-5.99,1.49ZM197.472,147.663c-.68,2.09-2.99,1.68-4.85,1.64v-21.86c1.28.06,2.93-.33,4.05.43,1.24.84,1.47,17.72.8,19.79ZM210.002,149.293c-12.51,1.25-14-19.51-2.66-21.66,12.76-2.43,14.02,20.52,2.66,21.66ZM237.532,147.803c0,1.58-2.87,1.82-4.56.56-2.76-2.05-4.34-8.86-7.41-10.98-.61,5.07,2.64,13.15-5,11.92v-20.87c7.57-1.76,7.11,7.44,11.97,10.93v-10.94l5,.01v19.37ZM258.482,149.293c-.34.31-3.16.03-4-.47-1.92-1.14-.68-4.21-3.44-4.57-9.09-1.17-4.16,5.83-11.51,5.04.56-2.76,6.19-20.14,7.12-20.72.62-.39,4.09-.39,4.71,0,.93.58,7.93,19.98,7.12,20.72ZM273.462,148.303h-12.98v-19.87c0-.2,3.28.13,3.99,0v16.89c0,.45,8.57-.44,8.99.01v2.97ZM292.802,149.243c-14.31,1.35-13.74-22.59-1.01-21.77,4.32.28,7.91,3.39,7.61,7.91-4.5,1.61-4.77-3.77-7.5-4.05-6.87-.69-6.86,17.1,2.51,13.99,1.19-5.65-2.2-3.36-2.85-4.07-.27-.28-.28-3.73-.14-3.87.32-.35,6.52.22,7.99-.01.26,6.33,1.16,11.14-6.61,11.87ZM314.242,144.483c-.49-.46-5.17-.34-6.2,0-1.04.35-4.03,6.21-6.63,3.82-.74-.68,5.79-18.08,6.47-18.88.96-1.13,4.64-1.54,5.41-.9.8.67,5.62,17.28,6.07,19.78-5.48,1.38-4.25-3.02-5.12-3.82ZM343.322,149.303c0,.19-3.85.14-3.99,0-.47-.45.34-10.93-.02-12.92l-4.99,12.91c-3.97,2.69-6.56-10.35-6.98-12.91-1.74-.23-.94,2.26-.99,3.47-.07,1.72.34,9.12,0,9.45-.58.55-4.99-.24-4.99-1.5v-19.37c1.56.31,6.11-.54,6.87.12.66.57,3.56,12.81,4.61,12.81,3.78-5.58,1.38-15.31,10.48-12.93v20.87ZM359.292,136.383v2.97h-7.99l-.02,5.4,10.01.58-.01,2.97h-13.97v-19.87h13.97l.01,2.98-9.99-.01v4.98h7.99ZM385.332,142.853c-.12,8.53-9.04,4.67-15.07,5.45v-19.87c4.72.57,14.56-2.34,14.94,4.56.13,2.44.17,7.34.13,9.86ZM404.202,144.823c0,4.5-15.97,6.93-15.97-1.98v-14.41h4.99v15.4c0,2.62,6.98,1.27,6.98-.99v-14.41c0-.2,4-.2,4,0v16.39ZM412.182,148.303h-3.99v-19.87h3.99v19.87ZM429.152,148.303h-12.98v-19.87c0-.2,3.28.13,3.99,0v16.89c0,.45,8.56-.44,8.99.01v2.97ZM447.172,138.883c-.31,12.91-16.03,11.19-16.03,8.92v-19.37c9.45-.37,16.31-1.01,16.03,10.45ZM464.082,131.413l-8.99-.01v4.98h7.99v2.97h-7.99l-.01,5.4,9,.58v2.97h-13.98v-19.87h13.98v2.98ZM482.052,148.793c-6.81,3.37-5.06-9.42-11-6.94,2.97,5.87-4.98,9.89-4.98,5.95v-19.37c4.01.58,11.13-1.45,14.02,1.43,5.04,5.02-.91,8.22-1,10.98-.08,2.36,3.39,5.13,2.96,7.95Z"/><path class="cls-5" d="M471.062,137.383l.01-5.97c.37-.38,5.52.56,5.88,1.09,2.22,3.28-2.61,6.1-5.89,4.88Z"/><path class="cls-5" d="M205.832,144.083c-1.86-1.88-1.87-10.22.44-11.74,9.7-6.38,7.67,19.91-.44,11.74Z"/><path class="cls-5" d="M436.132,145.323v-13.91c9.61-.33,9.18,14.19,0,13.91Z"/><path class="cls-5" d="M374.252,145.323l.94-5.54c1.1-.96,5.61.14,5.94.67,2.56,4.12-3.82,5.91-6.88,4.87Z"/><path class="cls-5" d="M374.252,136.383l.01-4.97c.44-.45,6.73.62,6.98,1.01,2.31,3.56-4.86,4.8-6.99,3.96Z"/><path class="cls-5" d="M250.502,141.353c-.11.1-2.88.1-2.99,0-.69-.66.65-5.58,1.01-6.95,2.09-.01,2.26,6.67,1.98,6.95Z"/><path class="cls-5" d="M104.792,145.323v-13.91c9.88-1.89,9.89,15.79,0,13.91Z"/><path class="cls-5" d="M308.392,141.343c-.14-.46.74-8.05,2.98-5.95,1.71,1.61,2.08,8.29-2.98,5.95Z"/><path class="cls-5" d="M166.662,141.343c-6.21,1.35-4.13-3.24-1.48-6.94l1.48,6.94Z"/><polygon class="cls-3" points="354.297 2.241 373.758 77.767 394.217 2.241 424.157 2.241 424.157 112.534 401.203 112.534 402.191 45.966 382.356 111.958 365.884 112.595 345.814 44.957 346.313 112.534 323.358 112.534 323.358 2.241 354.297 2.241"/><path class="cls-6" d="M229.546,39.006h-22.455c-3.047-5.731-2.331-16.376-11.035-17.829-10.371-1.731-17.492.878-20.701,11.073-2.644,8.401-2.893,41.231-.191,49.472,3.56,10.859,12.133,13.399,22.858,11.848,1.091-.158,7.572-2.492,7.572-2.896v-18.879h-15.968v-17.885h39.92v46.204c-29.212,25.222-77.003,18.336-79.888-25.787-2.304-35.248-1.664-77.468,45.44-74.058,23.621,1.71,33.019,16.432,34.447,38.736Z"/><path class="cls-6" d="M285.392,2.283l-21.45-.11-36.39,110.36h24.45c3.21-6.35,4.01-14.36,6.37-21.28l31.01-.53,5.03,21.81h25.95L285.392,2.283ZM264.472,69.803c3.14-9.71,4.52-21.87,8.04-31.24.4-1.06.42-2.39,1.93-2.54l9,33.78h-18.97Z"/><path class="cls-6" d="M78.24,99.8c-1.755-2.334-2.334-3.66-2.333-4.68.003-3.158-6.17-13.176-4.046-18.357h22.954c-3.763,25.262,36.33,25.289,26.946,0-1.45-3.909-3.942-5.099-7.316-7.123-3.28-1.967-23.981-11.433-26.616-11.756l-9.417-10.994c-1.057-1.866-3.283-6.98-3.557-8.878-.518-3.594-.16-14.53.998-17.885,3.349-9.703,14.674-15.519,23.952-17.885,1.775-.453,5.811-1.856,6.986-1.987,21.996-2.454,41.399,13.111,39.92,35.771h-23.952c2.938-24.404-34.142-17-22.805,1.343,6.786,10.979,33.666,11.052,42.795,28.933,20.562,40.275-34.226,64.691-60.389,38.264-1.108-1.119-3.175-3.506-4.121-4.765Z"/><polygon class="cls-4" points="498.009 2.241 498.009 22.114 457.091 22.114 457.091 45.961 492.021 45.961 492.021 65.834 457.091 65.834 457.091 92.662 498.009 92.662 498.009 112.534 433.139 112.534 433.139 2.241 498.009 2.241"/><path class="cls-2" d="M87.83,57.885c2.634.322,23.336,9.789,26.616,11.756,3.375,2.024,5.866,3.215,7.316,7.123H50.903c-.815-6.235-1.267-12.625-1.996-18.879,12.271,1.084,26.97-1.463,38.922,0Z"/><path class="cls-2" d="M74.855,38.012c.274,1.899,2.5,7.012,3.557,8.878l9.417,10.994c-11.953-1.463-26.651,1.084-38.922,0-.773-6.634-1.291-13.244-1.996-19.873h27.944Z"/><path class="cls-2" d="M54.895,20.127c6.637-.662,14.2.482,20.958,0-1.158,3.355-1.516,14.291-.998,17.885h-27.944c-.413-3.884-3.223-10.295-1.856-14.275.666-1.939,7.589-3.386,9.84-3.61Z"/><path class="cls-2" d="M99.806,2.241c-9.278,2.366-20.603,8.182-23.952,17.885-6.758.482-14.321-.662-20.958,0,1.442-2.005,6.037-1.215,6.849-3.614,1.192-3.522-.566-11.15.137-15.265,10.798.003,21.64-.131,32.449-.017,1.688.018,4.44-.634,5.475,1.011Z"/><path class="cls-2" d="M71.861,76.764c-2.124,5.181,4.049,15.198,4.046,18.357-.001,1.02-1.7.303-2.05.522l-10.982.004c-.407-4.453-.265-6.287,2-9.941.232-.374.752-.634.998-.994,2.791-4.079,1.807-3.888-.998-7.949h6.986Z"/><path class="cls-1" d="M65.873,84.713c-.246.36-.766.62-.998.994-5.039.617-6.606-2.351-5.992-6.955,5.505-.509,7.808-.123,6.99,5.961Z"/><path class="cls-2" d="M121.762,76.764c9.383,25.289-30.709,25.262-26.946,0h26.946Z"/></g></svg>