<?xml version="1.0" encoding="UTF-8"?><svg id="Capa_2" xmlns="http://www.w3.org/2000/svg" viewBox="0 0 406.971 114.209"><defs><style>.cls-1{fill:#fe3578;}</style></defs><g id="Capa_1-2"><path class="cls-1" d="M167.386,105.391c-17.243,17.568-49.38,7.131-51.559-17.971-.843-9.706-1.133-35.85,2.849-43.875,13.032-26.263,54.458-19.137,57.079,11.058,1.273,14.668,2.325,39.891-8.37,50.788ZM142.559,33.564c-8.755,1.164-16.816,8.014-19.486,16.339-2.041,6.363-2.026,29.216-1.231,36.496,2.679,24.543,37.164,29.731,46.081,6.131,2.689-7.115,2.621-28.79,1.799-36.887-1.381-13.613-13.417-23.907-27.163-22.078Z"/><path class="cls-1" d="M221.391.835c22.128-2.636,55.878,4.856,60.624,30.438,1.759,9.48-2.459,12.56-2.468,17.412-.004,2.254,5.2,10.877,5.805,15.984,7.817,66.003-107.213,62.272-104.566,9.977.262-5.184,4.818-11.402,4.871-13.049.053-1.657-4.508-10.307-4.937-14.904-2.12-22.674,18.903-43.264,40.671-45.858ZM224.385,6.789c-20.763,2.492-43.909,22.707-35.883,45.06.832,2.317,5.19,8.606,5.192,9.752.003,1.501-4.769,5.907-5.573,9.343-9.177,39.221,67.99,50.241,86.896,16.971,5.467-9.622,5.892-20.216,1.49-30.324-1.104-2.535-5.063-6.857-5.005-8.93.06-2.133,5.406-5.698,4.91-12.731-1.615-22.901-32.978-31.426-52.028-29.14Z"/><path class="cls-1" d="M349.295,16.432c15.984-27.978,54.112-18.289,56.862,14.406,1.042,12.391,1.561,51.258-1.469,62.016-7.083,25.151-44.725,29.207-55.393,4.952-8.096,11.872-17.702,17.259-32.451,15.915-12.119-1.104-23.533-12.742-25.142-24.609-1.872-13.803-1.534-47.018-.293-61.302,2.666-30.682,42.769-37.104,57.885-11.379ZM346.397,33.219c-.579-.387-1.722-8.22-2.35-10.062-7.236-21.214-37.154-22.237-44.681-1.325-3.357,9.326-2.904,50.116-1.919,61.569,2.508,29.149,38.733,33.901,47.416,5.516.739-2.415-.098-8.052,3.961-8.032,4.034.02,3.1,6.98,3.725,9.231,6.935,24.987,43.29,22.026,46.555-1.825,1.763-12.886,1.284-46.014.122-59.487-2.285-26.512-38.531-30.152-46.459-5.456-.655,2.041-.65,13.698-6.369,9.871Z"/><path class="cls-1" d="M57.986,16.433c18.981-33.131,68.191-10.904,54.063,26.474-4.336,11.472-23.699,50.804-30.691,59.773-13.343,17.115-38.589,14.558-50.096-3.584C24.092,87.792,6.017,53.067,1.924,40.955-10.281,4.843,38.835-15.655,57.986,16.433ZM26.813,6.752C11.299,9.094,3.321,24.412,8.066,38.813c2.982,9.05,25.429,53.81,31.005,60.453,10.384,12.371,29.669,11.155,38.414-2.423,6.722-10.436,25.541-47.058,29.172-58.307C117.079,6.243,70.32-5.421,61.939,22.834c-.953,3.211-.297,11.578-5.243,10.364-3.564-.874-2.334-6.181-3.122-8.887-3.232-11.102-15.073-19.323-26.76-17.559Z"/></g></svg>