<svg width="442" height="73" viewBox="0 0 442 73" fill="none" xmlns="http://www.w3.org/2000/svg">
<g clip-path="url(#clip0_2413_3529)">
<path d="M441.164 0H0V73H441.164V0Z" fill="#FFBD1B"/>
<path d="M0 73L290 73V0L0 0V73Z" fill="#DBE2FF"/>
<path d="M6.01048e-06 9.40591e-07L253.5 0C273.658 -7.4799e-08 290 16.3416 290 36.5C290 56.6584 273.658 73 253.5 73H0L6.01048e-06 9.40591e-07Z" fill="#5441FF"/>
<path d="M441.164 0H290V73H441.164V0Z" fill="#DBE2FF"/>
<path d="M331.082 36.5063C331.082 16.3427 314.309 2.08301e-06 293.614 2.87829e-08C292.354 -9.63571e-08 293 2.8783e-08 291.921 3.74798e-06H290V73H293.614C314.309 73 331.082 56.6573 331.082 36.4937V36.5063Z" fill="#FF8800"/>
<path d="M372.164 36.5063C372.164 16.3427 355.391 2.08301e-06 334.696 2.87829e-08C333.436 -9.63571e-08 334.082 2.8783e-08 333.003 3.74798e-06H331.082V73H334.696C355.391 73 372.164 56.6573 372.164 36.4937V36.5063Z" fill="#FFAA00"/>
<path d="M441.164 0H372.164V73H441.164V0Z" fill="#DBE2FF"/>
<path d="M406.67 35.457C387.611 35.457 372.164 52.2638 372.164 72.9999H441.164C441.164 52.2638 425.717 35.457 406.658 35.457H406.67Z" fill="#97A7FF"/>
<path d="M407.158 35.4571C425.941 35.4571 441.164 19.5841 441.164 9.2862e-06L373.164 0C373.164 19.5841 388.387 35.4571 407.17 35.4571H407.158Z" fill="#97A7FF"/>
</g>
<defs>
<clipPath id="clip0_2413_3529">
<rect width="442" height="73" fill="white"/>
</clipPath>
</defs>
</svg>
