<svg width="797" height="630" viewBox="0 0 797 630" fill="none" xmlns="http://www.w3.org/2000/svg">
<g clip-path="url(#clip0_2411_3084)">
<mask id="mask0_2411_3084" style="mask-type:luminance" maskUnits="userSpaceOnUse" x="0" y="0" width="797" height="630">
<path d="M797 0H0V630H797V0Z" fill="white"/>
</mask>
<g mask="url(#mask0_2411_3084)">
<path d="M601 105.018C601 47.0124 553.995 -0.000972027 496 -0.000976562V209.999C553.995 209.999 601 162.986 601 104.981V105.018Z" fill="#FF8800"/>
<path d="M496 105.018C496 47.0133 448.995 4.33939e-06 391 0V210C448.995 210 496 162.987 496 104.982V105.018Z" fill="#FFAA00"/>
<path d="M390.088 105.018C390.136 47.0133 343.171 4.3332e-06 285.176 0L285 210C342.995 210 390.039 162.987 390.088 104.982V105.018Z" fill="#5441FF"/>
<path d="M253.444 61.3211C212.463 20.2712 146.009 20.2376 105.001 61.2461L253.369 209.862C294.378 168.854 294.4 102.345 253.418 61.2954L253.444 61.3211Z" fill="#6E76FF"/>
<path d="M105.018 105.088C47.0133 105.039 2.535e-06 152.005 0 210L210 210.176C210 152.181 162.987 105.136 104.982 105.088H105.018Z" fill="#DBE2FF"/>
<path d="M692 525.018C692 467.013 644.995 420 587 420V630C644.995 630 692 582.987 692 524.982V525.018Z" fill="#FF8800"/>
<path d="M587 420H377V630.168H587V420Z" fill="#FFCA00"/>
<path d="M482 531C506.301 531 526 511.524 526 487.5C526 463.476 506.301 444 482 444C457.699 444 438 463.476 438 487.5C438 511.524 457.699 531 482 531Z" fill="#EBF0FF"/>
<path d="M482 596C506.301 596 526 576.301 526 552C526 527.699 506.301 508 482 508C457.699 508 438 527.699 438 552C438 576.301 457.699 596 482 596Z" fill="#97A7FF"/>
<path d="M692.205 524.982C692.205 582.987 739.21 630 797.205 630V420C739.21 420 692.205 467.013 692.205 525.018V524.982Z" fill="#FFAA00"/>
<path d="M601 104.982C601 162.987 647.533 210 704.944 210C705.411 210 705.842 210 706.309 210H846V105V1.6845e-06L704.944 0C647.533 -6.856e-07 601 47.0133 601 105.018V104.982Z" fill="#FFCA00"/>
<path d="M285 210V210.006C342.534 210.543 389 257.347 389 315.018L388.991 316.34C388.269 373.386 342.082 419.461 285 419.993V420H0V210H285Z" fill="#FFAA00"/>
<path d="M271 420C328.995 420 376 467.013 376 525.018L375.991 526.34C375.264 583.719 328.542 630 271 630H142V420H271Z" fill="#6E76FF"/>
<path d="M80.0002 420H0.000244141V630H80.0002V420Z" fill="#EBF0FF"/>
<path d="M803 210V420H493V419.993C435.918 419.461 389.731 373.386 389.009 316.34L389 315.018C389 257.347 435.466 210.543 493 210.006V210H803Z" fill="#DBE2FF"/>
</g>
</g>
<defs>
<clipPath id="clip0_2411_3084">
<rect width="797" height="630" fill="white"/>
</clipPath>
</defs>
</svg>
